<svg xmlns="http://www.w3.org/2000/svg" xmlns:xlink="http://www.w3.org/1999/xlink" version="1.1" width="256" height="256" viewBox="0 0 256 256" xml:space="preserve">
<desc>Created with Fabric.js 1.7.22</desc>
<defs>
</defs>
<g transform="translate(128 128) scale(0.72 0.72)" style="">
	<g style="stroke: none; stroke-width: 0; stroke-dasharray: none; stroke-linecap: butt; stroke-linejoin: miter; stroke-miterlimit: 10; fill: none; fill-rule: nonzero; opacity: 1;" transform="translate(-175.05 -175.05000000000004) scale(3.89 3.89)" >
	<path d="M 72.028 0 H 17.972 C 8.09 0 0 8.09 0 17.972 v 54.056 C 0 81.91 8.09 90 17.972 90 h 54.056 C 81.91 90 90 81.91 90 72.028 V 17.972 C 90 8.09 81.91 0 72.028 0 z" style="stroke: none; stroke-width: 1; stroke-dasharray: none; stroke-linecap: butt; stroke-linejoin: miter; stroke-miterlimit: 10; fill: rgb(0,25,53); fill-rule: nonzero; opacity: 1;" transform=" matrix(1 0 0 1 0 0) " stroke-linecap="round" />
	<path d="M 60.502 73.03 h -9.484 c -8.54 0 -14.905 -4.394 -14.905 -14.905 V 41.292 h -7.76 v -9.115 c 8.54 -2.218 12.112 -9.567 12.523 -15.931 h 8.868 v 14.453 H 60.09 v 10.593 H 49.744 V 55.95 c 0 4.393 2.218 5.912 5.748 5.912 h 5.01 V 73.03 z" style="stroke: none; stroke-width: 1; stroke-dasharray: none; stroke-linecap: butt; stroke-linejoin: miter; stroke-miterlimit: 10; fill: rgb(255,255,255); fill-rule: nonzero; opacity: 1;" transform=" matrix(1 0 0 1 0 0) " stroke-linecap="round" />
</g>
</g>
</svg>